{"asset":{"version":"2.0","generator":"THREE.GLTFExporter"},"scenes":[{"nodes":[0],"name":"AuxScene"}],"scene":0,"nodes":[{"mesh":0}],"bufferViews":[{"buffer":0,"byteOffset":0,"byteLength":40644,"target":34962,"byteStride":12},{"buffer":0,"byteOffset":40644,"byteLength":40644,"target":34962,"byteStride":12}],"buffers":[{"byteLength":81288,"uri":"data:application/octet-stream;base64,"}],"accessors":[{"bufferView":0,"componentType":5126,"count":3387,"max":[100.91192626953125,2.7959749698638916,100.61190795898438],"min":[-100.68809509277344,-0.8040310144424438,-100.98809051513672],"type":"VEC3"},{"bufferView":1,"componentType":5126,"count":3387,"max":[0.8461481928825378,1,0.9363225698471069],"min":[-0.9660406708717346,0.15053190290927887,-0.9834204316139221],"type":"VEC3"}],"materials":[{"pbrMetallicRoughness":{"baseColorFactor":[0.5019607843137255,0.5019607843137255,0.5019607843137255,1],"metallicFactor":0,"roughnessFactor":1}}],"meshes":[{"primitives":[{"mode":4,"attributes":{"POSITION":0,"NORMAL":1},"material":0}]}]}